HIERARCHY
ROOT Pelvis
{
	OFFSET 0.000000 0.000000 0.000000
	CHANNELS 6 Xposition Yposition Zposition Xrotation Yrotation Zrotation
	JOINT LeftUpLeg_virtual
	{
		OFFSET 0.000000 0.000000 0.000000
		CHANNELS 3 Xrotation Yrotation Zrotation
		JOINT LeftUpLeg
		{
			OFFSET 8.479700 -4.795502 -0.379100
			CHANNELS 3 Xrotation Yrotation Zrotation
			JOINT LeftLeg
			{
				OFFSET 0.024144 -32.555107 0.112900
				CHANNELS 3 Xrotation Yrotation Zrotation
				JOINT LeftFoot
				{
					OFFSET -0.024144 -32.638630 -3.012600
					CHANNELS 3 Xrotation Yrotation Zrotation
					JOINT LeftToeBase
					{
						OFFSET 0.970200 -13.225400 11.864200
						CHANNELS 3 Xrotation Yrotation Zrotation
						End Site
						{
							OFFSET 0 0 0
						}
					}
				}
			}
		}
	}
	JOINT RightUpLeg_virtual
	{
		OFFSET 0.000000 0.000000 0.000000
		CHANNELS 3 Xrotation Yrotation Zrotation
		JOINT RightUpLeg
		{
			OFFSET -8.479700 -4.795502 -0.379100
			CHANNELS 3 Xrotation Yrotation Zrotation
			JOINT RightLeg
			{
				OFFSET -0.023144 -32.555092 0.112900
				CHANNELS 3 Xrotation Yrotation Zrotation
				JOINT RightFoot
				{
					OFFSET 0.023144 -32.638641 -3.012700
					CHANNELS 3 Xrotation Yrotation Zrotation
					JOINT RightToeBase
					{
						OFFSET -0.970200 -13.225400 11.864200
						CHANNELS 3 Xrotation Yrotation Zrotation
						End Site
						{
							OFFSET 0 0 0
						}
					}
				}
			}
		}
	}
	JOINT Hips_virtual
	{
		OFFSET 0.000000 0.000000 0.000000
		CHANNELS 3 Xrotation Yrotation Zrotation
		JOINT Hips
		{
			OFFSET -0.000000 -0.000000 -0.000000
			CHANNELS 3 Xrotation Yrotation Zrotation
			JOINT Spine
			{
				OFFSET 0.000000 7.722000 1.166200
				CHANNELS 3 Xrotation Yrotation Zrotation
				JOINT Spine1
				{
					OFFSET 0.000000 12.024101 0.248800
					CHANNELS 3 Xrotation Yrotation Zrotation
					JOINT Spine2
					{
						OFFSET 0.000000 11.502998 -0.491200
						CHANNELS 3 Xrotation Yrotation Zrotation
						JOINT Neck_virtual
						{
							OFFSET 0.000000 0.000000 0.000000
							CHANNELS 3 Xrotation Yrotation Zrotation
							JOINT Neck
							{
								OFFSET 0.000000 18.430702 -3.123100
								CHANNELS 3 Xrotation Yrotation Zrotation
								JOINT Head
								{
									OFFSET 0.000000 9.051102 1.034000
									CHANNELS 3 Xrotation Yrotation Zrotation
									End Site
									{
										OFFSET 0 0 0
									}
								}
							}
						}
						JOINT LeftShoulder_virtual
						{
							OFFSET 0.000000 0.000000 0.000000
							CHANNELS 3 Xrotation Yrotation Zrotation
							JOINT LeftShoulder
							{
								OFFSET 6.197800 13.665199 -4.064700
								CHANNELS 3 Xrotation Yrotation Zrotation
								JOINT LeftArm
								{
									OFFSET 7.778100 -0.187103 -1.709300
									CHANNELS 3 Xrotation Yrotation Zrotation
									JOINT LeftForeArm
									{
										OFFSET 22.049376 0.000000 0.000000
										CHANNELS 3 Xrotation Yrotation Zrotation
										JOINT LeftHand
										{
											OFFSET 23.009392 0.000000 0.000000
											CHANNELS 3 Xrotation Yrotation Zrotation
											End Site
											{
												OFFSET 0 0 0
											}
										}
									}
								}
							}
						}
						JOINT RightShoulder_virtual
						{
							OFFSET 0.000000 0.000000 0.000000
							CHANNELS 3 Xrotation Yrotation Zrotation
							JOINT RightShoulder
							{
								OFFSET -6.197800 13.665199 -4.064700
								CHANNELS 3 Xrotation Yrotation Zrotation
								JOINT RightArm
								{
									OFFSET -7.778100 -0.187103 -1.709300
									CHANNELS 3 Xrotation Yrotation Zrotation
									JOINT RightForeArm
									{
										OFFSET -22.049376 0.000000 0.000000
										CHANNELS 3 Xrotation Yrotation Zrotation
										JOINT RightHand
										{
											OFFSET -23.009392 0.000000 0.000000
											CHANNELS 3 Xrotation Yrotation Zrotation
											End Site
											{
												OFFSET 0 0 0
											}
										}
									}
								}
							}
						}
					}
				}
			}
		}
	}
}
MOTION
Frames: 4
Frame Time: 0.03333333
-0.401984 75.821342 2.620256 0.000000 0.000000 0.000000 -13.180143 -1.763795 -5.123595 -32.002684 20.298711 12.026842 42.613953 -9.357592 10.043478 -0.850541 -7.842837 -1.380841 0.000000 0.000000 0.000000 -13.180143 -1.763795 -5.123595 -23.526260 -35.133455 -2.023223 39.468262 9.602036 -10.284311 -2.796242 6.606423 -5.007338 0.000000 0.000000 0.000000 -13.180143 -1.763795 -5.123595 0.000001 0.000000 0.000000 5.922117 -0.717366 3.090396 9.021538 -0.430000 -0.455594 0.000000 0.000000 0.000000 9.028562 -0.103889 -0.473627 15.499586 0.680417 0.863641 0.000000 0.000000 0.000000 9.028562 -0.103889 -0.473627 0.681782 3.908470 -11.397476 74.323544 -65.285516 4.646517 -0.000003 -18.010084 -0.000010 0.000000 0.000000 0.000000 9.028562 -0.103889 -0.473627 1.412996 0.332767 10.813719 8.850516 40.127180 57.894043 -0.000003 26.003464 -0.000001 0.000000 0.000000 0.000000 
-0.387634 75.822533 2.620445 0.000000 0.000000 0.000000 -13.183935 -1.801892 -5.106961 -31.993532 20.360423 12.024790 42.604907 -9.358437 10.043668 -0.852608 -7.854496 -1.366720 0.000000 0.000000 0.000000 -13.183935 -1.801892 -5.106961 -23.535976 -35.031917 -2.016492 39.475024 9.600546 -10.285257 -2.790520 6.560083 -4.980577 0.000000 0.000000 0.000000 -13.183935 -1.801892 -5.106961 0.000001 0.000000 0.000000 5.921121 -0.713033 3.083934 9.018471 -0.421017 -0.454877 0.000000 0.000000 0.000000 9.025357 -0.094396 -0.473342 15.500804 0.683413 0.851795 0.000000 0.000000 0.000000 9.025357 -0.094396 -0.473342 0.682937 3.924066 -11.425497 74.279707 -65.233900 4.635988 0.000007 -18.066243 0.000001 0.000000 0.000000 0.000000 9.025357 -0.094396 -0.473342 1.413247 0.336094 10.799355 8.846319 40.120483 57.885027 0.000006 26.006529 0.000001 0.000000 0.000000 0.000000 
-0.374289 75.823303 2.620878 0.000000 0.000000 0.000000 -13.187991 -1.837324 -5.088939 -31.983341 20.418985 12.020143 42.596601 -9.359314 10.043790 -0.854815 -7.864783 -1.353408 0.000000 0.000000 0.000000 -13.187991 -1.837324 -5.088939 -23.548633 -34.935038 -2.014407 39.485064 9.597737 -10.287364 -2.786599 6.523262 -4.954061 0.000000 0.000000 0.000000 -13.187991 -1.837324 -5.088939 0.000000 0.000000 0.000000 5.920228 -0.709035 3.074986 9.015934 -0.413233 -0.454230 0.000000 0.000000 0.000000 9.022703 -0.086283 -0.473040 15.501756 0.686838 0.839503 0.000000 0.000000 0.000000 9.022703 -0.086283 -0.473040 0.684057 3.939023 -11.452422 74.202472 -65.177804 4.592532 0.000004 -18.130771 -0.000010 0.000000 0.000000 0.000000 9.022703 -0.086283 -0.473040 1.414563 0.343949 10.791921 8.851294 40.106642 57.862726 -0.000012 26.024370 0.000035 0.000000 0.000000 0.000000 
-0.362554 75.823433 2.621681 0.000000 0.000000 0.000000 -13.192142 -1.868927 -5.069734 -31.972669 20.472444 12.012976 42.590085 -9.360120 10.043861 -0.857494 -7.873338 -1.341484 0.000000 0.000000 0.000000 -13.192142 -1.868927 -5.069734 -23.564923 -34.846109 -2.018061 39.499438 9.593177 -10.290826 -2.785285 6.499416 -4.928545 0.000000 0.000000 0.000000 -13.192142 -1.868927 -5.069734 -0.000001 0.000000 0.000000 5.919387 -0.705453 3.063325 9.013795 -0.406900 -0.453622 0.000000 0.000000 0.000000 9.020476 -0.079824 -0.472674 15.502868 0.690590 0.827108 0.000000 0.000000 0.000000 9.020476 -0.079824 -0.472674 0.685117 3.952922 -11.477674 74.095832 -65.119222 4.518435 0.000001 -18.201460 0.000016 0.000000 0.000000 0.000000 9.020476 -0.079824 -0.472674 1.416784 0.355710 10.790262 8.863887 40.086565 57.830611 0.000009 26.055138 -0.000001 0.000000 0.000000 0.000000 
